<svg id="Camada_1" data-name="Camada 1" xmlns="http://www.w3.org/2000/svg" xmlns:xlink="http://www.w3.org/1999/xlink" viewBox="0 0 47.81 60.23"><defs><style>.cls-1{fill:none;}.cls-2{isolation:isolate;}.cls-3{fill:#8c8c8c;}.cls-4{clip-path:url(#clip-path);}.cls-5{fill:#818181;}.cls-6{fill:#7c7c7c;}.cls-7{fill:#787878;}.cls-8{clip-path:url(#clip-path-2);}.cls-9{fill:#8a8a8a;}.cls-10{fill:#858585;}.cls-11{clip-path:url(#clip-path-3);}.cls-12{clip-path:url(#clip-path-4);}.cls-13{fill:#737373;}.cls-14{fill:#969696;}.cls-15{clip-path:url(#clip-path-5);}.cls-16{clip-path:url(#clip-path-6);}.cls-17{fill:gray;}.cls-18{clip-path:url(#clip-path-7);}.cls-19{fill:#d7d7d7;}.cls-20{clip-path:url(#clip-path-8);}.cls-21{clip-path:url(#clip-path-9);}.cls-22{clip-path:url(#clip-path-10);}.cls-23{clip-path:url(#clip-path-11);}.cls-24{clip-path:url(#clip-path-12);}.cls-25{clip-path:url(#clip-path-13);}.cls-26{clip-path:url(#clip-path-14);}</style><clipPath id="clip-path" transform="translate(-215.65 -183.99)"><path class="cls-1" d="M235,217.17h-6.82a3.14,3.14,0,0,0-.92-2.33h6.82A3.14,3.14,0,0,1,235,217.17Z"/></clipPath><clipPath id="clip-path-2" transform="translate(-215.65 -183.99)"><path class="cls-1" d="M234,205.69h-6.82a3.12,3.12,0,0,0,.89-2.29h6.82A3.12,3.12,0,0,1,234,205.69Z"/></clipPath><clipPath id="clip-path-3" transform="translate(-215.65 -183.99)"><path class="cls-1" d="M233,234.68h-6.82c1.12,0,2-1.24,2-2.78H235C235,233.44,234.08,234.68,233,234.68Z"/></clipPath><clipPath id="clip-path-4" transform="translate(-215.65 -183.99)"><path class="cls-1" d="M234.89,191.09h-6.82c0-1.53-.91-2.77-2-2.77h6.82C234,188.32,234.89,189.56,234.89,191.09Z"/></clipPath><clipPath id="clip-path-5" transform="translate(-215.65 -183.99)"><path class="cls-1" d="M231.88,212.88h-6.82a1.7,1.7,0,0,0-1.12-.45h6.82A1.7,1.7,0,0,1,231.88,212.88Z"/></clipPath><clipPath id="clip-path-6" transform="translate(-215.65 -183.99)"><path class="cls-1" d="M230.7,208.18h-6.82a1.68,1.68,0,0,0,1.13-.48h6.82A1.68,1.68,0,0,1,230.7,208.18Z"/></clipPath><clipPath id="clip-path-7" transform="translate(-215.65 -183.99)"><path class="cls-1" d="M224.5,239h-6.82c-1.12,0-2-1.24-2-2.77h6.82C222.47,237.76,223.38,239,224.5,239Z"/></clipPath><clipPath id="clip-path-8" transform="translate(-215.65 -183.99)"><path class="cls-1" d="M222.47,186.77h-6.82c0-1.54.91-2.78,2-2.78h6.82C223.38,184,222.47,185.23,222.47,186.77Z"/></clipPath><clipPath id="clip-path-9" transform="translate(-215.65 -183.99)"><path class="cls-1" d="M259.86,228.82H253c0-1.36.81-2.46,1.8-2.46h6.82C260.67,226.36,259.86,227.46,259.86,228.82Z"/></clipPath><clipPath id="clip-path-10" transform="translate(-215.65 -183.99)"><path class="cls-1" d="M261.66,205.89h-6.82c-1,0-1.8-1.1-1.8-2.45h6.82C259.86,204.79,260.67,205.89,261.66,205.89Z"/></clipPath><clipPath id="clip-path-11" transform="translate(-215.65 -183.99)"><path class="cls-1" d="M258.06,239.89h-6.82c1,0,1.8-1.1,1.8-2.46h6.82C259.86,238.79,259.05,239.89,258.06,239.89Z"/></clipPath><clipPath id="clip-path-12" transform="translate(-215.65 -183.99)"><path class="cls-1" d="M259.86,196H253c0-1.36-.81-2.46-1.8-2.46h6.82C259.05,193.52,259.86,194.62,259.86,196Z"/></clipPath><clipPath id="clip-path-13" transform="translate(-215.65 -183.99)"><path class="cls-1" d="M250.19,244.21h-6.82a2.44,2.44,0,0,1-2.05-1.08,4.65,4.65,0,0,1-.8-2.81h6.82a4.65,4.65,0,0,0,.8,2.81A2.44,2.44,0,0,0,250.19,244.21Z"/></clipPath><clipPath id="clip-path-14" transform="translate(-215.65 -183.99)"><path class="cls-1" d="M247.34,193.1h-6.82a4.65,4.65,0,0,1,.8-2.81,2.42,2.42,0,0,1,2.05-1.09h6.82a2.42,2.42,0,0,0-2.05,1.09A4.65,4.65,0,0,0,247.34,193.1Z"/></clipPath></defs><title>code-square</title><g class="cls-2"><rect class="cls-3" x="12.53" y="33.18" width="6.82" height="14.73"/><rect class="cls-3" x="12.42" y="7.1" width="6.82" height="12.31"/><g class="cls-2"><g class="cls-4"><g class="cls-2"><path class="cls-5" d="M235,217.17h-6.82a.49.49,0,0,0,0-.12H235a.49.49,0,0,1,0,.12" transform="translate(-215.65 -183.99)"/><path class="cls-6" d="M235,217.05h-6.82a3.08,3.08,0,0,0-.06-.61h6.82a3.08,3.08,0,0,1,.06.61" transform="translate(-215.65 -183.99)"/><path class="cls-7" d="M234.93,216.44h-6.82a2.93,2.93,0,0,0-.85-1.6h6.82a2.93,2.93,0,0,1,.85,1.6" transform="translate(-215.65 -183.99)"/></g></g></g><g class="cls-2"><g class="cls-8"><g class="cls-2"><path class="cls-9" d="M234,205.69h-6.82a2.75,2.75,0,0,0,.74-1.25h6.82a2.75,2.75,0,0,1-.74,1.25" transform="translate(-215.65 -183.99)"/><path class="cls-10" d="M234.74,204.44h-6.82a3.75,3.75,0,0,0,.13-.6h6.82a3.75,3.75,0,0,1-.13.6" transform="translate(-215.65 -183.99)"/><path class="cls-5" d="M234.87,203.84h-6.82c0-.14,0-.29,0-.44h6.82c0,.15,0,.3,0,.44" transform="translate(-215.65 -183.99)"/></g></g></g><g class="cls-2"><g class="cls-11"><g class="cls-2"><path class="cls-5" d="M233,234.68h0" transform="translate(-215.65 -183.99)"/><path class="cls-10" d="M233.06,234.68h-6.82a1.46,1.46,0,0,0,.45-.1h6.82a1.46,1.46,0,0,1-.45.1" transform="translate(-215.65 -183.99)"/><path class="cls-9" d="M233.51,234.58h-6.82A2.42,2.42,0,0,0,228,233h6.82a2.42,2.42,0,0,1-1.34,1.63" transform="translate(-215.65 -183.99)"/><path class="cls-10" d="M234.85,233H228a3.75,3.75,0,0,0,.12-.6H235a3.75,3.75,0,0,1-.12.6" transform="translate(-215.65 -183.99)"/><path class="cls-5" d="M235,232.35h-6.82a3.19,3.19,0,0,0,0-.45H235a3.19,3.19,0,0,1,0,.45" transform="translate(-215.65 -183.99)"/></g></g></g><g class="cls-2"><g class="cls-12"><g class="cls-2"><path class="cls-5" d="M234.89,191.09h-6.82V191h6.82v.12" transform="translate(-215.65 -183.99)"/><path class="cls-6" d="M234.89,191h-6.82a4.07,4.07,0,0,0-.07-.61h6.82a4.07,4.07,0,0,1,.07.61" transform="translate(-215.65 -183.99)"/><path class="cls-7" d="M234.82,190.36H228a2.24,2.24,0,0,0-2-2h6.82a2.24,2.24,0,0,1,2,2" transform="translate(-215.65 -183.99)"/></g></g></g><polygon class="cls-13" points="18.42 30.85 11.6 30.85 9.41 28.89 16.23 28.89 18.42 30.85"/><polygon class="cls-14" points="16.18 23.71 9.36 23.71 11.53 21.71 18.34 21.71 16.18 23.71"/><g class="cls-2"><g class="cls-15"><g class="cls-2"><path class="cls-7" d="M231.88,212.88h-6.82a1.7,1.7,0,0,0-1.12-.45h6.82a1.7,1.7,0,0,1,1.12.45" transform="translate(-215.65 -183.99)"/></g></g></g><g class="cls-2"><g class="cls-16"><g class="cls-2"><path class="cls-5" d="M230.7,208.18h0" transform="translate(-215.65 -183.99)"/><path class="cls-10" d="M230.79,208.18H224a1.65,1.65,0,0,0,.44-.1h6.82a1.65,1.65,0,0,1-.44.1" transform="translate(-215.65 -183.99)"/><path class="cls-9" d="M231.23,208.08h-6.82a1.84,1.84,0,0,0,.6-.38h6.82a1.84,1.84,0,0,1-.6.38" transform="translate(-215.65 -183.99)"/></g></g></g><polygon class="cls-17" points="12.43 50.7 5.61 50.7 10.49 50.7 17.31 50.7 12.43 50.7"/><polygon class="cls-17" points="8.85 0 2.03 0 13.16 0 19.98 0 8.85 0"/><g class="cls-2"><g class="cls-18"><g class="cls-2"><path class="cls-7" d="M224.5,239h-6.82a2.24,2.24,0,0,1-2-2h6.82a2.24,2.24,0,0,0,2,2" transform="translate(-215.65 -183.99)"/><path class="cls-6" d="M222.54,237h-6.82a4.07,4.07,0,0,1-.07-.61h6.82a4.07,4.07,0,0,0,.07.61" transform="translate(-215.65 -183.99)"/><path class="cls-5" d="M222.47,236.35h-6.82v-.12h6.82v.12" transform="translate(-215.65 -183.99)"/></g></g></g><rect class="cls-3" y="2.78" width="6.82" height="49.46"/><path class="cls-19" d="M237.25,212.89a4.3,4.3,0,0,1,1.35,3.51v18.71a4.56,4.56,0,0,1-.81,2.8,2.41,2.41,0,0,1-2,1.09H224.5c-1.12,0-2-1.24-2-2.77V186.77c0-1.54.91-2.78,2-2.78h11.14a2.48,2.48,0,0,1,2.06,1.09,4.7,4.7,0,0,1,.79,2.81v16.35a5,5,0,0,1-1.44,3.65,3.39,3.39,0,0,0-.09,4.74Zm-2.25,19V217.17a3.14,3.14,0,0,0-.92-2.33l-2.2-2a1.7,1.7,0,0,0-1.12-.45h-2.68c-1.13,0-2,1.24-2,2.78V231.9c0,1.54.91,2.78,2,2.78H233c1.12,0,2-1.24,2-2.78m-9-40.81V205.4c0,1.53.91,2.78,2,2.78h2.62a1.68,1.68,0,0,0,1.13-.48l2.17-2a3.12,3.12,0,0,0,.89-2.29V191.09c0-1.53-.91-2.77-2-2.77h-4.78c-1.13,0-2,1.24-2,2.77" transform="translate(-215.65 -183.99)"/><g class="cls-2"><g class="cls-20"><g class="cls-2"><path class="cls-5" d="M222.47,186.77h-6.82a3.19,3.19,0,0,1,0-.45h6.82a3.19,3.19,0,0,0,0,.45" transform="translate(-215.65 -183.99)"/><path class="cls-10" d="M222.5,186.32h-6.82a2.9,2.9,0,0,1,.12-.6h6.82a2.9,2.9,0,0,0-.12.6" transform="translate(-215.65 -183.99)"/><path class="cls-9" d="M222.62,185.72H215.8a2.4,2.4,0,0,1,1.34-1.63H224a2.4,2.4,0,0,0-1.34,1.63" transform="translate(-215.65 -183.99)"/><path class="cls-10" d="M224,184.09h-6.82a1.34,1.34,0,0,1,.45-.1h6.82a1.34,1.34,0,0,0-.45.1" transform="translate(-215.65 -183.99)"/><path class="cls-5" d="M224.41,184h0" transform="translate(-215.65 -183.99)"/></g></g></g></g><g class="cls-2"><rect class="cls-3" x="37.39" y="44.83" width="6.82" height="8.61"/><g class="cls-2"><g class="cls-21"><g class="cls-2"><path class="cls-5" d="M259.86,228.82H253a2.6,2.6,0,0,1,0-.4h6.82a2.6,2.6,0,0,0,0,.4" transform="translate(-215.65 -183.99)"/><path class="cls-10" d="M259.89,228.42h-6.82a4.15,4.15,0,0,1,.1-.53H260a4.15,4.15,0,0,0-.1.53" transform="translate(-215.65 -183.99)"/><path class="cls-9" d="M260,227.89h-6.82a2.13,2.13,0,0,1,1.19-1.44h6.82a2.13,2.13,0,0,0-1.19,1.44" transform="translate(-215.65 -183.99)"/><path class="cls-10" d="M261.18,226.45h-6.82a1.3,1.3,0,0,1,.39-.09h6.82a1.3,1.3,0,0,0-.39.09" transform="translate(-215.65 -183.99)"/><path class="cls-5" d="M261.57,226.36h0" transform="translate(-215.65 -183.99)"/></g></g></g><g class="cls-2"><g class="cls-22"><g class="cls-2"><path class="cls-7" d="M261.66,205.89h-6.82a2,2,0,0,1-1.73-1.81h6.82a2,2,0,0,0,1.73,1.81" transform="translate(-215.65 -183.99)"/><path class="cls-6" d="M259.93,204.08h-6.82a2.35,2.35,0,0,1-.06-.54h6.82a2.35,2.35,0,0,0,.06.54" transform="translate(-215.65 -183.99)"/><path class="cls-5" d="M259.87,203.54h-6.82a.34.34,0,0,1,0-.1h6.82a.34.34,0,0,0,0,.1" transform="translate(-215.65 -183.99)"/></g></g></g><rect class="cls-3" x="37.39" y="12" width="6.82" height="7.45"/><g class="cls-2"><g class="cls-23"><g class="cls-2"><path class="cls-5" d="M258.06,239.89h0" transform="translate(-215.65 -183.99)"/><path class="cls-10" d="M258.15,239.89h-6.82a1.69,1.69,0,0,0,.39-.08h6.82a1.69,1.69,0,0,1-.39.08" transform="translate(-215.65 -183.99)"/><path class="cls-9" d="M258.54,239.81h-6.82a2.17,2.17,0,0,0,1.19-1.46h6.82a2.17,2.17,0,0,1-1.19,1.46" transform="translate(-215.65 -183.99)"/><path class="cls-10" d="M259.73,238.35h-6.82a3,3,0,0,0,.11-.52h6.82a3,3,0,0,1-.11.52" transform="translate(-215.65 -183.99)"/><path class="cls-5" d="M259.84,237.83H253a2.68,2.68,0,0,0,0-.4h6.82a2.68,2.68,0,0,1,0,.4" transform="translate(-215.65 -183.99)"/></g></g></g><g class="cls-2"><g class="cls-24"><g class="cls-2"><path class="cls-5" d="M259.86,196H253v-.1h6.82v.1" transform="translate(-215.65 -183.99)"/><path class="cls-6" d="M259.86,195.88H253a2.35,2.35,0,0,0-.06-.54h6.82a2.35,2.35,0,0,1,.06.54" transform="translate(-215.65 -183.99)"/><path class="cls-7" d="M259.8,195.34H253a2,2,0,0,0-1.74-1.82h6.82a2,2,0,0,1,1.74,1.82" transform="translate(-215.65 -183.99)"/></g></g></g><polygon class="cls-17" points="37.06 55.91 30.25 55.91 35.59 55.91 42.41 55.91 37.06 55.91"/><polygon class="cls-17" points="34.54 5.21 27.72 5.21 38.08 5.21 44.9 5.21 34.54 5.21"/><g class="cls-2"><g class="cls-25"><g class="cls-2"><path class="cls-7" d="M250.19,244.21h-6.82a2.44,2.44,0,0,1-2.05-1.08,4,4,0,0,1-.69-1.64h6.82a4,4,0,0,0,.69,1.64,2.44,2.44,0,0,0,2.05,1.08" transform="translate(-215.65 -183.99)"/><path class="cls-6" d="M247.45,241.49h-6.82a5.75,5.75,0,0,1-.11-1h6.82a5.75,5.75,0,0,0,.11,1" transform="translate(-215.65 -183.99)"/><path class="cls-5" d="M247.34,240.53h-6.82v-.21h6.82v.21" transform="translate(-215.65 -183.99)"/></g></g></g><rect class="cls-3" x="24.87" y="9.12" width="6.82" height="47.21"/><path class="cls-19" d="M260.55,189.2a2.5,2.5,0,0,1,2.09,1.09,4.53,4.53,0,0,1,.82,2.81v10.34c0,1.35-.81,2.45-1.8,2.45s-1.8-1.1-1.8-2.45V196c0-1.36-.81-2.46-1.8-2.46h-5.34c-1,0-1.81,1.11-1.81,2.46v41.45c0,1.36.81,2.46,1.81,2.46h5.34c1,0,1.8-1.1,1.8-2.46v-8.61c0-1.36.81-2.46,1.8-2.46s1.8,1.1,1.8,2.46v11.5a4.53,4.53,0,0,1-.82,2.81,2.52,2.52,0,0,1-2.09,1.08H250.19a2.44,2.44,0,0,1-2.05-1.08,4.65,4.65,0,0,1-.8-2.81V193.1a4.65,4.65,0,0,1,.8-2.81,2.42,2.42,0,0,1,2.05-1.09Z" transform="translate(-215.65 -183.99)"/><g class="cls-2"><g class="cls-26"><g class="cls-2"><path class="cls-5" d="M247.34,193.1h-6.82a6.23,6.23,0,0,1,0-.76h6.82a6.23,6.23,0,0,0,0,.76" transform="translate(-215.65 -183.99)"/><path class="cls-10" d="M247.38,192.34h-6.82a5.2,5.2,0,0,1,.17-.84h6.82a5.2,5.2,0,0,0-.17.84" transform="translate(-215.65 -183.99)"/><path class="cls-9" d="M247.55,191.5h-6.82a3.69,3.69,0,0,1,.59-1.21,2.57,2.57,0,0,1,1.16-.94h6.82a2.57,2.57,0,0,0-1.16.94,3.69,3.69,0,0,0-.59,1.21" transform="translate(-215.65 -183.99)"/><path class="cls-10" d="M249.3,189.35h-6.82a2.81,2.81,0,0,1,.71-.15H250a2.81,2.81,0,0,0-.71.15" transform="translate(-215.65 -183.99)"/><path class="cls-5" d="M250,189.2h0" transform="translate(-215.65 -183.99)"/></g></g></g></g></svg>